HIERARCHY
ROOT Hips
{
    OFFSET   0.000000   0.000000   0.000000
    CHANNELS 6 Xposition Yposition Zposition Zrotation Xrotation Yrotation
    JOINT Chest
    {
        OFFSET   0.000000   8.007230   0.000000
        CHANNELS 3 Zrotation Xrotation Yrotation
        JOINT Chest2
        {
            OFFSET   0.000000  22.077100   0.000000
            CHANNELS 3 Zrotation Xrotation Yrotation
            JOINT Neck
            {
                OFFSET   0.000000  23.254800   0.000000
                CHANNELS 3 Zrotation Xrotation Yrotation
                JOINT Head
                {
                    OFFSET   0.000010  14.370000   1.956600
                    CHANNELS 3 Zrotation Xrotation Yrotation
                    End Site
                    {
                        OFFSET   0.000000  19.566000   0.000000
                    }
                }
            }
            JOINT LeftCollar
            {
                OFFSET   3.911900  19.017000  -0.467062
                CHANNELS 3 Zrotation Xrotation Yrotation
                JOINT LeftShoulder
                {
                    OFFSET  10.383700   0.000000   0.000000
                    CHANNELS 3 Zrotation Xrotation Yrotation
                    JOINT LeftElbow
                    {
                        OFFSET  26.662100   0.001193   0.000835
                        CHANNELS 3 Zrotation Xrotation Yrotation
                        JOINT LeftWrist
                        {
                            OFFSET  28.869000  -0.000058  -0.000075
                            CHANNELS 3 Zrotation Xrotation Yrotation
                            JOINT LeftFinger0
                            {
                                OFFSET   2.044660  -2.323460   3.252850
                                CHANNELS 3 Zrotation Xrotation Yrotation
                                JOINT LeftFinger01
                                {
                                    OFFSET   3.088130   0.000000   0.000000
                                    CHANNELS 3 Zrotation Xrotation Yrotation
                                    JOINT LeftFinger02
                                    {
                                        OFFSET   2.639450   0.000000   0.000000
                                        CHANNELS 3 Zrotation Xrotation Yrotation
                                        End Site
                                        {
                                            OFFSET   2.582190   0.000000   0.000000
                                        }
                                    }
                                }
                            }
                            JOINT LeftFinger1
                            {
                                OFFSET   8.364480   0.000000   3.252850
                                CHANNELS 3 Zrotation Xrotation Yrotation
                                JOINT LeftFinger11
                                {
                                    OFFSET   4.646920   0.000000   0.000000
                                    CHANNELS 3 Zrotation Xrotation Yrotation
                                    JOINT LeftFinger12
                                    {
                                        OFFSET   2.323460   0.000000   0.000000
                                        CHANNELS 3 Zrotation Xrotation Yrotation
                                        End Site
                                        {
                                            OFFSET   2.273050   0.000000   0.000000
                                        }
                                    }
                                }
                            }
                            JOINT LeftFinger2
                            {
                                OFFSET   8.364490   0.000016   1.078090
                                CHANNELS 3 Zrotation Xrotation Yrotation
                                JOINT LeftFinger21
                                {
                                    OFFSET   5.111620   0.000000   0.000000
                                    CHANNELS 3 Zrotation Xrotation Yrotation
                                    JOINT LeftFinger22
                                    {
                                        OFFSET   2.788150   0.000012   0.000000
                                        CHANNELS 3 Zrotation Xrotation Yrotation
                                        End Site
                                        {
                                            OFFSET   2.727660   0.000000   0.000000
                                        }
                                    }
                                }
                            }
                            JOINT LeftFinger3
                            {
                                OFFSET   7.899780   0.000014  -1.078090
                                CHANNELS 3 Zrotation Xrotation Yrotation
                                JOINT LeftFinger31
                                {
                                    OFFSET   4.646930   0.000000   0.000000
                                    CHANNELS 3 Zrotation Xrotation Yrotation
                                    JOINT LeftFinger32
                                    {
                                        OFFSET   2.323470   0.000000   0.000000
                                        CHANNELS 3 Zrotation Xrotation Yrotation
                                        End Site
                                        {
                                            OFFSET   2.273050   0.000000   0.000000
                                        }
                                    }
                                }
                            }
                            JOINT LeftFinger4
                            {
                                OFFSET   7.435090   0.000000  -3.252850
                                CHANNELS 3 Zrotation Xrotation Yrotation
                                JOINT LeftFinger41
                                {
                                    OFFSET   3.717550   0.000000   0.000000
                                    CHANNELS 3 Zrotation Xrotation Yrotation
                                    JOINT LeftFinger42
                                    {
                                        OFFSET   1.858770   0.000000   0.000000
                                        CHANNELS 3 Zrotation Xrotation Yrotation
                                        End Site
                                        {
                                            OFFSET   1.818440   0.000000   0.000000
                                        }
                                    }
                                }
                            }
                        }
                    }
                }
            }
            JOINT RightCollar
            {
                OFFSET  -3.911900  19.017000  -0.467063
                CHANNELS 3 Zrotation Xrotation Yrotation
                JOINT RightShoulder
                {
                    OFFSET -10.383700   0.000023   0.000000
                    CHANNELS 3 Zrotation Xrotation Yrotation
                    JOINT RightElbow
                    {
                        OFFSET -26.662100   0.001246   0.001011
                        CHANNELS 3 Zrotation Xrotation Yrotation
                        JOINT RightWrist
                        {
                            OFFSET -28.869000  -0.000026  -0.000078
                            CHANNELS 3 Zrotation Xrotation Yrotation
                            JOINT RightFinger0
                            {
                                OFFSET  -2.044660  -2.323490   3.252850
                                CHANNELS 3 Zrotation Xrotation Yrotation
                                JOINT RightFinger01
                                {
                                    OFFSET  -3.088130   0.000000   0.000000
                                    CHANNELS 3 Zrotation Xrotation Yrotation
                                    JOINT RightFinger02
                                    {
                                        OFFSET  -2.639460   0.000000   0.000000
                                        CHANNELS 3 Zrotation Xrotation Yrotation
                                        End Site
                                        {
                                            OFFSET  -2.582190   0.000000   0.000000
                                        }
                                    }
                                }
                            }
                            JOINT RightFinger1
                            {
                                OFFSET  -8.364480   0.000000   3.252850
                                CHANNELS 3 Zrotation Xrotation Yrotation
                                JOINT RightFinger11
                                {
                                    OFFSET  -4.646920   0.000000   0.000000
                                    CHANNELS 3 Zrotation Xrotation Yrotation
                                    JOINT RightFinger12
                                    {
                                        OFFSET  -2.323470   0.000000   0.000000
                                        CHANNELS 3 Zrotation Xrotation Yrotation
                                        End Site
                                        {
                                            OFFSET  -2.273050   0.000000   0.000000
                                        }
                                    }
                                }
                            }
                            JOINT RightFinger2
                            {
                                OFFSET  -8.364480   0.000000   1.078090
                                CHANNELS 3 Zrotation Xrotation Yrotation
                                JOINT RightFinger21
                                {
                                    OFFSET  -5.111620   0.000000   0.000000
                                    CHANNELS 3 Zrotation Xrotation Yrotation
                                    JOINT RightFinger22
                                    {
                                        OFFSET  -2.788160   0.000000   0.000000
                                        CHANNELS 3 Zrotation Xrotation Yrotation
                                        End Site
                                        {
                                            OFFSET  -2.727660   0.000000   0.000000
                                        }
                                    }
                                }
                            }
                            JOINT RightFinger3
                            {
                                OFFSET  -7.899780   0.000000  -1.078090
                                CHANNELS 3 Zrotation Xrotation Yrotation
                                JOINT RightFinger31
                                {
                                    OFFSET  -4.646930   0.000000   0.000000
                                    CHANNELS 3 Zrotation Xrotation Yrotation
                                    JOINT RightFinger32
                                    {
                                        OFFSET  -2.323470   0.000000   0.000000
                                        CHANNELS 3 Zrotation Xrotation Yrotation
                                        End Site
                                        {
                                            OFFSET  -2.273050   0.000000   0.000000
                                        }
                                    }
                                }
                            }
                            JOINT RightFinger4
                            {
                                OFFSET  -7.435090   0.000000  -3.252850
                                CHANNELS 3 Zrotation Xrotation Yrotation
                                JOINT RightFinger41
                                {
                                    OFFSET  -3.717550   0.000000   0.000000
                                    CHANNELS 3 Zrotation Xrotation Yrotation
                                    JOINT RightFinger42
                                    {
                                        OFFSET  -1.858760   0.000000   0.000000
                                        CHANNELS 3 Zrotation Xrotation Yrotation
                                        End Site
                                        {
                                            OFFSET  -1.818440   0.000000   0.000000
                                        }
                                    }
                                }
                            }
                        }
                    }
                }
            }
        }
    }
    JOINT LeftHip
    {
        OFFSET   9.783010   0.000000   0.000000
        CHANNELS 3 Zrotation Xrotation Yrotation
        JOINT LeftKnee
        {
            OFFSET   0.000073 -41.789100   0.001749
            CHANNELS 3 Zrotation Xrotation Yrotation
            JOINT LeftAnkle
            {
                OFFSET   0.000111 -41.133200  -0.000179
                CHANNELS 3 Zrotation Xrotation Yrotation
                JOINT LeftToe
                {
                    OFFSET   0.000000  -6.358960  14.674500
                    CHANNELS 3 Zrotation Xrotation Yrotation
                    End Site
                    {
                        OFFSET   0.000000   0.000000   3.913200
                    }
                }
            }
        }
    }
    JOINT RightHip
    {
        OFFSET  -9.783010   0.000000   0.000000
        CHANNELS 3 Zrotation Xrotation Yrotation
        JOINT RightKnee
        {
            OFFSET   0.000424 -41.789200   0.005205
            CHANNELS 3 Zrotation Xrotation Yrotation
            JOINT RightAnkle
            {
                OFFSET   0.000000 -41.133200  -0.000155
                CHANNELS 3 Zrotation Xrotation Yrotation
                JOINT RightToe
                {
                    OFFSET   0.000000  -6.358960  14.674500
                    CHANNELS 3 Zrotation Xrotation Yrotation
                    End Site
                    {
                        OFFSET   0.000000   0.000000   3.913200
                    }
                }
            }
        }
    }
}
MOTION
Frames: 4
Frame Time:   0.016667
  0.808848  89.532800  -0.592587  -2.569170  -6.901110  -2.721790   0.520697   2.759290  -0.138366   1.049900   5.517210  -0.302384   0.054194   0.485717  -0.007610   0.092423   0.984852   3.202490  -1.079670  -0.737138   0.695429 -77.849100  12.874200   3.808170  -1.030630  -2.061830 -15.479400  12.194500  -7.889780   2.440450  37.585900  28.209300 -56.302300 -31.278400  -0.003192  -0.001869 -10.632300  -0.001301  -0.001786 -23.394800   3.552550  -8.147780 -19.348000   0.003168   0.002256 -13.543600   0.002240  -0.000981 -27.786100   0.797811  -1.508210 -30.765300   0.008564   0.001864 -20.489700   0.002924   0.008871 -27.353400   0.786587  -1.514160 -28.547800   0.002761   0.004811 -19.012800   0.005349   0.003657 -28.045600   0.804855  -1.504860 -42.084600  -0.000696   0.002867 -28.028400  -0.001420   0.001325   6.005010   0.495653   3.188480  76.274700   4.044920  -7.030270  -1.255440  -6.290910  11.869300 -11.773000  -2.719310   2.419050 -38.992900  28.573200  63.098500  26.879700  -0.000376   0.000263   8.435730  -0.000322   0.011812  23.182400   4.563740  10.506900  19.311700   0.002888  -0.001714  13.518200   0.002173  -0.003242  27.743700   3.440210   6.505600  31.678000  -0.011986   0.008522  21.097600   0.002001   0.011930  27.426300   2.570790   4.939360  29.402300  -0.001732   0.005990  19.582000   0.004244   0.007007  34.843200   0.275143   0.395252  52.266200   0.007539   0.009104  34.809300   0.004853   0.005289   2.416560   9.903290   2.684810   1.456690   0.091299   1.541260  -1.320120  -3.987250   1.909440  -0.000000   0.000000   0.000000   1.099490   9.072510  -1.182080  -0.093530   1.312670  -5.819070   0.898548  -4.258310  -0.729378  -0.000000   0.000000  -0.000000
  0.809042  89.532500  -0.611406  -2.571200  -6.920880  -2.722070   0.520686   2.776230  -0.138429   1.049930   5.551070  -0.302728   0.054047   0.497161  -0.007611   0.091666   1.008140   3.191200  -1.073640  -0.737068   0.695282 -77.822900  12.895100   3.797770  -1.034480  -2.052530 -15.494200  12.184000  -7.882140   2.427830  37.591800  28.206600 -56.267700 -31.271500  -0.003218  -0.001894 -10.632300  -0.001309  -0.001792 -23.375100   3.552440  -8.147620 -19.331900   0.003159   0.002251 -13.532400   0.002240  -0.000986 -27.779900   0.797807  -1.508720 -30.729900   0.008606   0.001825 -20.466100   0.002942   0.008914 -27.353300   0.786584  -1.514670 -28.525000   0.002763   0.004815 -18.997700   0.005371   0.003660 -28.031600   0.804846  -1.505380 -42.063400  -0.000693   0.002889 -28.014300  -0.001431   0.001336   6.004780   0.495813   3.193280  76.261900   4.063970  -7.014030  -1.254980  -6.298210  11.892100 -11.780500  -2.717920   2.400700 -38.997200  28.584300  63.110500  26.881000  -0.000376   0.000281   8.437800  -0.000321   0.011815  23.183000   4.560730  10.506500  19.311700   0.002889  -0.001714  13.518200   0.002172  -0.003242  27.743500   3.441180   6.508030  31.666300  -0.011989   0.008521  21.089600   0.002001   0.011931  27.426200   2.571240   4.941040  29.383100  -0.001732   0.005987  19.569200   0.004244   0.007002  34.806300   0.284142   0.408191  52.210900   0.007536   0.009102  34.772500   0.004851   0.005287   2.415100   9.926870   2.685040   1.456870   0.060639   1.549920  -1.319960  -3.963920   1.903080  -0.000000   0.000000   0.000000   1.107040   9.080440  -1.181300  -0.097522   1.318510  -5.819000   0.896965  -4.252800  -0.729378   0.000000   0.000000   0.000000
  0.809235  89.532300  -0.642788  -2.574770  -6.954280  -2.722430   0.520703   2.804640  -0.138494   1.050090   5.607890  -0.303084   0.053839   0.515652  -0.007613   0.090435   1.045710   3.179930  -1.064940  -0.736997   0.695076 -77.779100  12.929100   3.777660  -1.041620  -2.039390 -15.517800  12.173500  -7.874510   2.415210  37.594400  28.190300 -56.222300 -31.264600  -0.003273  -0.001935 -10.632300  -0.001328  -0.001814 -23.355300   3.552250  -8.147400 -19.315800   0.003130   0.002240 -13.521100   0.002236  -0.000996 -27.773700   0.797799  -1.509230 -30.694600   0.008710   0.001729 -20.442600   0.002982   0.009019 -27.353200   0.786578  -1.515190 -28.502200   0.002765   0.004825 -18.982500   0.005424   0.003667 -28.017500   0.804828  -1.505890 -42.042300  -0.000686   0.002938 -28.000200  -0.001454   0.001360   6.004440   0.495972   3.200800  76.239000   4.099420  -6.986230  -1.256040  -6.305220  11.926900 -11.796800  -2.714170   2.362570 -38.997200  28.603700  63.131300  26.889900  -0.000375   0.000299   8.444980  -0.000320   0.011821  23.184400   4.554380  10.503700  19.311700   0.002889  -0.001716  13.518200   0.002170  -0.003242  27.743300   3.442150   6.510450  31.652100  -0.011996   0.008518  21.080200   0.002003   0.011936  27.426300   2.571690   4.942730  29.363900  -0.001733   0.005978  19.556300   0.004245   0.006988  34.759800   0.294362   0.424153  52.141300   0.007528   0.009097  34.726100   0.004847   0.005283   2.413230   9.958830   2.685390   1.457040   0.029978   1.563350  -1.320420  -3.933210   1.891370   0.000000   0.000000   0.000000   1.118520   9.088380  -1.178500  -0.103303   1.333310  -5.818860   0.893507  -4.245020  -0.729407   0.000000   0.000000   0.000000
  0.808205  89.532300  -0.667923  -2.578100  -6.982500  -2.722550   0.520737   2.828090  -0.136699   1.050180   5.654820  -0.299663   0.053738   0.529037  -0.007600   0.089272   1.072740   3.180000  -1.061260  -0.737007   0.694989 -77.742400  12.954400   3.756600  -1.049370  -2.033350 -15.537600  12.186100  -7.881330   2.415920  37.572900  28.157100 -56.199900 -31.279400  -0.003350  -0.001970 -10.639600  -0.001355  -0.001857 -23.362000   3.552050  -8.147300 -19.321300   0.003073   0.002222 -13.524900   0.002223  -0.001011 -27.775000   0.797788  -1.505050 -30.701900   0.008869   0.001585 -20.447500   0.003041   0.009174 -27.353200   0.786572  -1.510970 -28.512500   0.002764   0.004842 -18.989300   0.005502   0.003676 -28.020600   0.804808  -1.501670 -42.047000  -0.000680   0.003004 -28.003300  -0.001480   0.001394   6.004290   0.495777   3.205800  76.217000   4.135070  -6.959910  -1.261980  -6.299690  11.952800 -11.819500  -2.708590   2.311990 -38.978300  28.622300  63.157900  26.918500  -0.000371   0.000291   8.459890  -0.000322   0.011828  23.193100   4.544210  10.482000  19.317100   0.002882  -0.001718  13.522000   0.002168  -0.003243  27.745000   3.435490   6.497850  31.649300  -0.012005   0.008516  21.078600   0.002006   0.011948  27.427200   2.568130   4.935860  29.364000  -0.001732   0.005966  19.556400   0.004241   0.006965  34.748700   0.295736   0.427679  52.124700   0.007512   0.009090  34.715000   0.004843   0.005277   2.412890   9.966740   2.685530   1.460280   0.044192   1.573690  -1.321420  -3.927160   1.879650  -0.000000   0.000000   0.000000   1.124830   9.084160  -1.172370  -0.106123   1.358300  -5.818630   0.888403  -4.242420  -0.734081  -0.000000   0.000000   0.000000
